<svg width="24" height="24" viewBox="0 0 24 24" fill="none" xmlns="http://www.w3.org/2000/svg">
<path d="M19.8467 12.2744H20.5889V15.1201H19.8486V16.209H20.5889V19.0547H19.8486V21.1348L19.7021 21.2812C19.4268 21.5565 18.9764 21.7402 18.5039 21.877C18.008 22.0205 17.3962 22.1364 16.7168 22.2275C15.3557 22.41 13.674 22.5 12.001 22.5C10.3279 22.5 8.64629 22.41 7.28516 22.2275C6.60555 22.1364 5.99311 22.0205 5.49707 21.877C5.02464 21.7402 4.57408 21.5565 4.29883 21.2812L4.15234 21.1348V19.0547H3.41113V16.209H4.15234V15.1201H3.41113V12.2744H4.15234V10.251L4.33301 10.1006C5.17995 9.39394 5.72412 8.38948 5.85254 7.29395C5.98095 6.19814 5.68339 5.09437 5.02246 4.21094L4.63867 3.69824L5.23047 3.4502L5.70312 3.25293L5.92871 3.1582L5.8252 2.90527L5.63477 2.44238L6.09766 2.25293L7.80566 1.55176L8.26758 1.3623L8.45801 1.8252L8.55371 2.05957L8.77148 1.96875L9.11719 1.82324L9.53027 1.65137L9.74805 2.04199C9.97121 2.44367 10.2973 2.77866 10.6934 3.01172C11.0893 3.24472 11.5406 3.36712 12 3.36719C12.4596 3.36719 12.9115 3.24478 13.3076 3.01172C13.7036 2.77866 14.0298 2.44365 14.2529 2.04199L14.4697 1.65234L14.8809 1.82324L15.2168 1.96191L15.4453 2.05566L15.5547 1.80273L15.7529 1.34277L16.2119 1.54102L17.9082 2.27051L18.3672 2.46875L18.1689 2.92773L18.0713 3.15332L18.2871 3.24414L18.7695 3.44629L19.3613 3.69434L18.9775 4.20703C18.3166 5.09047 18.0191 6.19423 18.1475 7.29004C18.2759 8.38561 18.82 9.39003 19.667 10.0967L19.8467 10.2471V12.2744Z" fill="white" stroke="white"/>
<path d="M16.0144 2.00004L14.4423 5.65209L16.138 6.38197L17.71 2.72992L16.0144 2.00004ZM7.99513 2.0146L6.28729 2.71536L7.79665 6.39372L9.50449 5.69296L7.99513 2.0146ZM9.31057 2.28494L8.96432 2.42978L10.1892 5.41559L10.4701 6.10077L9.78556 6.37988L8.07785 7.08064L7.39271 7.36163L7.11173 6.67662L5.89566 3.71393L5.42309 3.91164C6.16072 4.89759 6.49201 6.12894 6.3487 7.35192C6.20539 8.57489 5.59839 9.69629 4.65281 10.485V12.0377H8.63386V15.3604H4.65276V15.9677H8.63382V19.2952H4.65276V20.9274C5.368 21.6426 8.68427 22 12.0006 22C15.3169 22 18.6332 21.6426 19.3485 20.9274V19.2952H15.3673V15.9683H19.3485V15.3604H15.3661V12.0334H19.347V10.4811C18.4014 9.69241 17.7944 8.57101 17.6511 7.34804C17.5078 6.12507 17.8391 4.89372 18.5767 3.90776L18.094 3.70554L16.8168 6.67232L16.5237 7.3529L15.8432 7.05987L14.1499 6.33356L13.4694 6.04053L13.7624 5.35999L15.0262 2.42369L14.6902 2.2849C14.4237 2.76459 14.0338 3.16429 13.5608 3.44257C13.0879 3.72086 12.5491 3.8676 12.0004 3.8676C11.4516 3.8676 10.9129 3.72086 10.4399 3.44257C9.96698 3.16429 9.57706 2.76463 9.31057 2.28494ZM3.91113 12.7741V14.6202H7.89359V12.7741H3.91113ZM16.1066 12.7741V14.6202H20.0891V12.7741H16.1066ZM3.91113 16.7089V18.555H7.89359V16.7088L3.91113 16.7089ZM16.1066 16.7089V18.555H20.0891V16.7088L16.1066 16.7089Z" fill="black"/>
</svg>
