<svg width="24" height="24" viewBox="0 0 24 24" fill="none" xmlns="http://www.w3.org/2000/svg">
<path d="M2.03125 16.5312L4.125 12.875H19.7812L21.6562 16.5312L20.2812 20.9688H3.46875L2.03125 16.5312Z" fill="white" stroke="black" stroke-width="0.5"/>
<path d="M4.59375 15.2812L5.375 13.0312H18.3438L19.375 15.2812H4.59375Z" fill="white" stroke="black" stroke-width="0.5"/>
<path d="M2.1875 11.7188L4.3125 8.9375H19.4688L21.6562 11.7188L21.2812 13.125H2.6875L2.1875 11.7188Z" fill="white" stroke="black" stroke-width="0.5"/>
<path d="M2.1875 16.5H21.5938" stroke="black" stroke-width="0.5"/>
<path d="M2.1875 11.7656H21.5938" stroke="black" stroke-width="0.5"/>
<path d="M13.6249 14.1562H10.4999V13.9062C10.4999 13.1219 10.1371 11.1656 11.6669 9.63574L11.6786 9.62402L11.6913 9.61426C12.6419 8.88304 13.1169 8.24521 13.3544 7.80371C13.4732 7.58268 13.5341 7.40914 13.5643 7.2959C13.5794 7.2393 13.5869 7.1974 13.5907 7.17188C13.5926 7.1591 13.5932 7.14996 13.5936 7.14551V7.14453L13.5946 7.12793L13.5975 7.11133C13.6474 6.83949 13.6293 6.43758 13.4325 6.11426C13.2474 5.81017 12.8776 5.53125 12.1249 5.53125C11.4122 5.53129 10.9818 5.90403 10.7186 6.39551C10.4485 6.90001 10.3651 7.51799 10.3749 7.93164L10.3807 8.1875H6.94519L6.93738 7.94531C6.91007 7.07135 7.13465 5.76474 7.90417 4.66895C8.68336 3.5594 10.0075 2.68753 12.1249 2.6875C14.2205 2.6875 15.5418 3.36998 16.329 4.25977C17.1092 5.14161 17.3406 6.19987 17.3124 6.91602V6.91699C17.2713 7.85371 17.0014 8.54209 16.6122 9.07617C16.2266 9.60513 15.7334 9.96938 15.2714 10.2734C14.7948 10.5871 14.3808 10.8215 14.0721 11.1152C13.7815 11.3918 13.6101 11.6997 13.6249 12.1484V14.1562Z" fill="white" stroke="black" stroke-width="0.5"/>
<rect x="10.5" y="14.935" width="3.125" height="3.13" fill="white" stroke="black" stroke-width="0.5"/>
</svg>
