<svg width="24" height="24" viewBox="0 0 24 24" fill="none" xmlns="http://www.w3.org/2000/svg">
<path d="M22.2812 20.9062H23.7227V22.125H4.71875V20.9062H6.125V0.5625H22.2812V20.9062Z" fill="black"/>
<rect x="7.21875" y="1.6875" width="13.9688" height="19.3125" fill="white"/>
<path d="M20.1875 21V3.09375L19.3086 2.9375H8.28125V21H20.1875Z" fill="black"/>
<mask id="path-4-outside-1_1468_6836" maskUnits="userSpaceOnUse" x="11.6562" y="0.21875" width="9" height="24" fill="black">
<rect fill="white" x="11.6562" y="0.21875" width="9" height="24"/>
<path d="M19.0938 3.9375V20.9375L13.6562 22.3125V2.21875L19.0938 3.9375ZM15.2344 10.9688C14.8806 10.9688 14.5938 11.3885 14.5938 11.9062C14.5938 12.424 14.8806 12.8438 15.2344 12.8438C15.5882 12.8438 15.875 12.424 15.875 11.9062C15.875 11.3885 15.5882 10.9688 15.2344 10.9688Z"/>
</mask>
<path d="M19.0938 3.9375V20.9375L13.6562 22.3125V2.21875L19.0938 3.9375ZM15.2344 10.9688C14.8806 10.9688 14.5938 11.3885 14.5938 11.9062C14.5938 12.424 14.8806 12.8438 15.2344 12.8438C15.5882 12.8438 15.875 12.424 15.875 11.9062C15.875 11.3885 15.5882 10.9688 15.2344 10.9688Z" fill="white"/>
<path d="M19.0938 3.9375H20.2937V3.05829L19.4554 2.7933L19.0938 3.9375ZM19.0938 20.9375L19.3879 22.1009L20.2937 21.8718V20.9375H19.0938ZM13.6562 22.3125H12.4562V23.8537L13.9504 23.4759L13.6562 22.3125ZM13.6562 2.21875L14.0179 1.07455L12.4562 0.580918V2.21875H13.6562ZM19.0938 3.9375H17.8938V20.9375H19.0938H20.2937V3.9375H19.0938ZM19.0938 20.9375L18.7996 19.7741L13.3621 21.1491L13.6562 22.3125L13.9504 23.4759L19.3879 22.1009L19.0938 20.9375ZM13.6562 22.3125H14.8563V2.21875H13.6562H12.4562V22.3125H13.6562ZM13.6562 2.21875L13.2946 3.36295L18.7321 5.0817L19.0938 3.9375L19.4554 2.7933L14.0179 1.07455L13.6562 2.21875ZM15.2344 10.9688V9.76875C14.5452 9.76875 14.0557 10.1784 13.7906 10.5663C13.5215 10.9601 13.3937 11.4374 13.3937 11.9062H14.5938H15.7938C15.7938 11.8573 15.8094 11.8659 15.7722 11.9204C15.739 11.9689 15.5698 12.1687 15.2344 12.1687V10.9688ZM14.5938 11.9062H13.3937C13.3937 12.3751 13.5215 12.8524 13.7906 13.2462C14.0557 13.6341 14.5452 14.0437 15.2344 14.0437V12.8438V11.6438C15.5698 11.6438 15.739 11.8436 15.7722 11.8921C15.8094 11.9466 15.7938 11.9552 15.7938 11.9062H14.5938ZM15.2344 12.8438V14.0437C15.9236 14.0437 16.4131 13.6341 16.6781 13.2462C16.9472 12.8524 17.075 12.3751 17.075 11.9062H15.875H14.675C14.675 11.9552 14.6594 11.9466 14.6966 11.8921C14.7298 11.8436 14.899 11.6438 15.2344 11.6438V12.8438ZM15.875 11.9062H17.075C17.075 11.4374 16.9472 10.9601 16.6781 10.5663C16.4131 10.1784 15.9236 9.76875 15.2344 9.76875V10.9688V12.1687C14.899 12.1687 14.7298 11.9689 14.6966 11.9204C14.6594 11.8659 14.675 11.8573 14.675 11.9062H15.875Z" fill="black" mask="url(#path-4-outside-1_1468_6836)"/>
<path d="M10.9188 5.58789C11.1411 5.58789 11.3451 5.7107 11.449 5.90723C11.5529 6.10373 11.5399 6.34166 11.4149 6.52539L8.05353 11.4629H9.76251C10.0056 11.4629 10.2246 11.6092 10.3172 11.834C10.4097 12.0587 10.3577 12.3171 10.1854 12.4883L2.90411 19.707C2.70256 19.9069 2.38818 19.9384 2.15118 19.7822C1.91432 19.6261 1.81884 19.3255 1.92267 19.0615L3.75568 14.4121H2.32501C2.13072 14.4121 1.94829 14.3185 1.83575 14.1602C1.72322 14.0018 1.69471 13.7987 1.75861 13.6152L4.41486 5.99023L4.45294 5.90332C4.55626 5.71109 4.75802 5.58789 4.98126 5.58789H10.9188Z" fill="white" stroke="black" stroke-width="1.2" stroke-linejoin="round"/>
</svg>
