<svg width="24" height="24" viewBox="0 0 24 24" fill="none" xmlns="http://www.w3.org/2000/svg">
<g clip-path="url(#clip0_1461_13272)">
<mask id="path-1-outside-1_1461_13272" maskUnits="userSpaceOnUse" x="-0.0769196" y="4.67902" width="25" height="17" fill="black">
<rect fill="white" x="-0.0769196" y="4.67902" width="25" height="17"/>
<path d="M5.07433 5.67916L3.54241 9.13564C3.49391 9.14576 3.44557 9.15667 3.39741 9.16836C3.15143 9.22859 2.935 9.30397 2.74474 9.39097L2.36058 6.90764L1.19702 10.9637C1.13524 11.1409 1.08345 11.3215 1.04189 11.5045L1.02981 11.5465L1.03306 11.5447C0.864269 12.3191 0.867615 13.205 1.20023 14.1387C1.35387 14.7904 1.92127 15.5494 3.07033 16.3757C4.42704 17.3513 6.55818 18.372 9.50671 19.3436C9.49463 19.2591 9.48853 19.1739 9.48845 19.0886C9.48845 18.5212 9.75042 18.0111 10.1592 17.6736L9.97001 15.6878L8.50423 17.4394C8.0679 17.2748 7.63563 17.0997 7.20779 16.9142L7.0707 13.2811L5.51057 16.0981C5.08915 15.8727 4.69747 15.6439 4.33507 15.4126L4.12003 11.2281L2.77545 14.2515C2.4276 13.9445 2.12682 13.6361 1.87154 13.3285C1.67431 12.3983 1.85239 11.5596 2.15712 10.8924L2.36546 10.7715C3.10217 10.5161 4.01593 10.4162 5.08436 10.4842C6.60554 10.581 8.45417 11.0301 10.5753 11.9157C10.5799 11.3073 10.9334 10.7766 11.444 10.5149L11.1839 8.07083L9.78318 10.059C9.33332 9.89168 8.89902 9.74621 8.48136 9.62166L8.28338 6.42752L6.76987 9.20544C6.22223 9.10492 5.71436 9.04576 5.24944 9.02373L5.07423 5.67902L5.07433 5.67916ZM20.0891 7.07039L19.3467 10.3366C18.8853 10.2788 18.3762 10.2494 17.8207 10.254L16.9107 7.16613L16.0707 10.3711C15.6366 10.4232 15.1818 10.4936 14.7083 10.5826L13.8246 8.49872L13.0614 10.6245C13.475 10.9119 13.7477 11.3899 13.7477 11.9276C13.7477 12.0395 13.7358 12.1488 13.7133 12.2544C15.908 11.7631 17.7696 11.6425 19.2609 11.8036C20.3251 11.9183 21.2085 12.1725 21.8909 12.5495L22.0758 12.7043C22.2625 13.4137 22.2952 14.2707 21.9423 15.1538C21.6384 15.4132 21.2895 15.6658 20.8945 15.909L20.0844 12.7007L19.1601 16.7876C18.7646 16.9533 18.3409 17.1117 17.8887 17.2616L16.9721 14.3999L16.0763 17.7773C15.6245 17.887 15.1701 17.9857 14.7134 18.0734L13.6629 15.9621L12.9718 18.2855C13.0948 18.5354 13.1588 18.8102 13.1587 19.0887C13.1587 19.3469 13.1037 19.6021 12.9971 19.8373C16.2696 19.3795 18.6751 18.7136 20.2421 17.9521C21.5152 17.3335 22.2035 16.6821 22.4659 16.0661C22.9526 15.2026 23.1068 14.3304 23.0723 13.5385L23.0752 13.5409L23.0705 13.4972C23.0607 13.3097 23.0404 13.123 23.0097 12.9378L22.5538 8.74312L21.7525 11.1247C21.5798 11.0066 21.3793 10.8956 21.1472 10.7942C21.1026 10.7749 21.0566 10.756 21.0099 10.7375L20.0891 7.07044V7.07039ZM12.1614 11.2098C11.7598 11.2098 11.4437 11.5259 11.4437 11.9276C11.4437 12.0917 11.4971 12.2408 11.587 12.3606C11.9465 12.3634 12.3053 12.392 12.6606 12.4463C12.7958 12.3165 12.8793 12.1334 12.8793 11.9276C12.8793 11.5261 12.563 11.2098 12.1614 11.2098V11.2098ZM11.5734 13.2299C11.526 13.2298 11.479 13.2302 11.4324 13.2311C10.874 13.2424 10.3826 13.3303 10.0275 13.4625C9.7908 13.5508 9.61764 13.6591 9.5233 13.7516C9.42896 13.8441 9.41293 13.8982 9.41293 13.9547C9.41293 14.0674 9.58999 14.3468 10.0756 14.5981C10.5611 14.8494 11.2795 15.0495 12.0735 15.1071C12.8677 15.1648 13.5833 15.0675 14.0568 14.891C14.2935 14.8028 14.4667 14.6945 14.561 14.602C14.6554 14.5096 14.6713 14.4554 14.6713 14.399C14.6713 14.286 14.4943 14.0067 14.0087 13.7555C13.5232 13.5041 12.8049 13.3041 12.0107 13.2466C11.8652 13.236 11.7193 13.2304 11.5734 13.2299ZM11.3091 15.8889L11.1715 17.2604C11.2217 17.2562 11.2723 17.2534 11.3236 17.2534C11.5737 17.2534 11.8127 17.3045 12.0307 17.3964L12.1724 15.9833C11.883 15.9687 11.5947 15.9372 11.309 15.8889L11.3091 15.8889ZM11.3236 18.122C10.7845 18.122 10.357 18.5496 10.357 19.0886C10.357 19.6275 10.7846 20.0551 11.3236 20.0551C11.8624 20.0551 12.2901 19.6274 12.2901 19.0886C12.2901 18.5497 11.8625 18.122 11.3235 18.122H11.3236Z"/>
</mask>
<path d="M5.07433 5.67916L3.54241 9.13564C3.49391 9.14576 3.44557 9.15667 3.39741 9.16836C3.15143 9.22859 2.935 9.30397 2.74474 9.39097L2.36058 6.90764L1.19702 10.9637C1.13524 11.1409 1.08345 11.3215 1.04189 11.5045L1.02981 11.5465L1.03306 11.5447C0.864269 12.3191 0.867615 13.205 1.20023 14.1387C1.35387 14.7904 1.92127 15.5494 3.07033 16.3757C4.42704 17.3513 6.55818 18.372 9.50671 19.3436C9.49463 19.2591 9.48853 19.1739 9.48845 19.0886C9.48845 18.5212 9.75042 18.0111 10.1592 17.6736L9.97001 15.6878L8.50423 17.4394C8.0679 17.2748 7.63563 17.0997 7.20779 16.9142L7.0707 13.2811L5.51057 16.0981C5.08915 15.8727 4.69747 15.6439 4.33507 15.4126L4.12003 11.2281L2.77545 14.2515C2.4276 13.9445 2.12682 13.6361 1.87154 13.3285C1.67431 12.3983 1.85239 11.5596 2.15712 10.8924L2.36546 10.7715C3.10217 10.5161 4.01593 10.4162 5.08436 10.4842C6.60554 10.581 8.45417 11.0301 10.5753 11.9157C10.5799 11.3073 10.9334 10.7766 11.444 10.5149L11.1839 8.07083L9.78318 10.059C9.33332 9.89168 8.89902 9.74621 8.48136 9.62166L8.28338 6.42752L6.76987 9.20544C6.22223 9.10492 5.71436 9.04576 5.24944 9.02373L5.07423 5.67902L5.07433 5.67916ZM20.0891 7.07039L19.3467 10.3366C18.8853 10.2788 18.3762 10.2494 17.8207 10.254L16.9107 7.16613L16.0707 10.3711C15.6366 10.4232 15.1818 10.4936 14.7083 10.5826L13.8246 8.49872L13.0614 10.6245C13.475 10.9119 13.7477 11.3899 13.7477 11.9276C13.7477 12.0395 13.7358 12.1488 13.7133 12.2544C15.908 11.7631 17.7696 11.6425 19.2609 11.8036C20.3251 11.9183 21.2085 12.1725 21.8909 12.5495L22.0758 12.7043C22.2625 13.4137 22.2952 14.2707 21.9423 15.1538C21.6384 15.4132 21.2895 15.6658 20.8945 15.909L20.0844 12.7007L19.1601 16.7876C18.7646 16.9533 18.3409 17.1117 17.8887 17.2616L16.9721 14.3999L16.0763 17.7773C15.6245 17.887 15.1701 17.9857 14.7134 18.0734L13.6629 15.9621L12.9718 18.2855C13.0948 18.5354 13.1588 18.8102 13.1587 19.0887C13.1587 19.3469 13.1037 19.6021 12.9971 19.8373C16.2696 19.3795 18.6751 18.7136 20.2421 17.9521C21.5152 17.3335 22.2035 16.6821 22.4659 16.0661C22.9526 15.2026 23.1068 14.3304 23.0723 13.5385L23.0752 13.5409L23.0705 13.4972C23.0607 13.3097 23.0404 13.123 23.0097 12.9378L22.5538 8.74312L21.7525 11.1247C21.5798 11.0066 21.3793 10.8956 21.1472 10.7942C21.1026 10.7749 21.0566 10.756 21.0099 10.7375L20.0891 7.07044V7.07039ZM12.1614 11.2098C11.7598 11.2098 11.4437 11.5259 11.4437 11.9276C11.4437 12.0917 11.4971 12.2408 11.587 12.3606C11.9465 12.3634 12.3053 12.392 12.6606 12.4463C12.7958 12.3165 12.8793 12.1334 12.8793 11.9276C12.8793 11.5261 12.563 11.2098 12.1614 11.2098V11.2098ZM11.5734 13.2299C11.526 13.2298 11.479 13.2302 11.4324 13.2311C10.874 13.2424 10.3826 13.3303 10.0275 13.4625C9.7908 13.5508 9.61764 13.6591 9.5233 13.7516C9.42896 13.8441 9.41293 13.8982 9.41293 13.9547C9.41293 14.0674 9.58999 14.3468 10.0756 14.5981C10.5611 14.8494 11.2795 15.0495 12.0735 15.1071C12.8677 15.1648 13.5833 15.0675 14.0568 14.891C14.2935 14.8028 14.4667 14.6945 14.561 14.602C14.6554 14.5096 14.6713 14.4554 14.6713 14.399C14.6713 14.286 14.4943 14.0067 14.0087 13.7555C13.5232 13.5041 12.8049 13.3041 12.0107 13.2466C11.8652 13.236 11.7193 13.2304 11.5734 13.2299ZM11.3091 15.8889L11.1715 17.2604C11.2217 17.2562 11.2723 17.2534 11.3236 17.2534C11.5737 17.2534 11.8127 17.3045 12.0307 17.3964L12.1724 15.9833C11.883 15.9687 11.5947 15.9372 11.309 15.8889L11.3091 15.8889ZM11.3236 18.122C10.7845 18.122 10.357 18.5496 10.357 19.0886C10.357 19.6275 10.7846 20.0551 11.3236 20.0551C11.8624 20.0551 12.2901 19.6274 12.2901 19.0886C12.2901 18.5497 11.8625 18.122 11.3235 18.122H11.3236Z" fill="#F8F8F8"/>
<path d="M5.07433 5.67916L3.54241 9.13564C3.49391 9.14576 3.44557 9.15667 3.39741 9.16836C3.15143 9.22859 2.935 9.30397 2.74474 9.39097L2.36058 6.90764L1.19702 10.9637C1.13524 11.1409 1.08345 11.3215 1.04189 11.5045L1.02981 11.5465L1.03306 11.5447C0.864269 12.3191 0.867615 13.205 1.20023 14.1387C1.35387 14.7904 1.92127 15.5494 3.07033 16.3757C4.42704 17.3513 6.55818 18.372 9.50671 19.3436C9.49463 19.2591 9.48853 19.1739 9.48845 19.0886C9.48845 18.5212 9.75042 18.0111 10.1592 17.6736L9.97001 15.6878L8.50423 17.4394C8.0679 17.2748 7.63563 17.0997 7.20779 16.9142L7.0707 13.2811L5.51057 16.0981C5.08915 15.8727 4.69747 15.6439 4.33507 15.4126L4.12003 11.2281L2.77545 14.2515C2.4276 13.9445 2.12682 13.6361 1.87154 13.3285C1.67431 12.3983 1.85239 11.5596 2.15712 10.8924L2.36546 10.7715C3.10217 10.5161 4.01593 10.4162 5.08436 10.4842C6.60554 10.581 8.45417 11.0301 10.5753 11.9157C10.5799 11.3073 10.9334 10.7766 11.444 10.5149L11.1839 8.07083L9.78318 10.059C9.33332 9.89168 8.89902 9.74621 8.48136 9.62166L8.28338 6.42752L6.76987 9.20544C6.22223 9.10492 5.71436 9.04576 5.24944 9.02373L5.07423 5.67902L5.07433 5.67916ZM20.0891 7.07039L19.3467 10.3366C18.8853 10.2788 18.3762 10.2494 17.8207 10.254L16.9107 7.16613L16.0707 10.3711C15.6366 10.4232 15.1818 10.4936 14.7083 10.5826L13.8246 8.49872L13.0614 10.6245C13.475 10.9119 13.7477 11.3899 13.7477 11.9276C13.7477 12.0395 13.7358 12.1488 13.7133 12.2544C15.908 11.7631 17.7696 11.6425 19.2609 11.8036C20.3251 11.9183 21.2085 12.1725 21.8909 12.5495L22.0758 12.7043C22.2625 13.4137 22.2952 14.2707 21.9423 15.1538C21.6384 15.4132 21.2895 15.6658 20.8945 15.909L20.0844 12.7007L19.1601 16.7876C18.7646 16.9533 18.3409 17.1117 17.8887 17.2616L16.9721 14.3999L16.0763 17.7773C15.6245 17.887 15.1701 17.9857 14.7134 18.0734L13.6629 15.9621L12.9718 18.2855C13.0948 18.5354 13.1588 18.8102 13.1587 19.0887C13.1587 19.3469 13.1037 19.6021 12.9971 19.8373C16.2696 19.3795 18.6751 18.7136 20.2421 17.9521C21.5152 17.3335 22.2035 16.6821 22.4659 16.0661C22.9526 15.2026 23.1068 14.3304 23.0723 13.5385L23.0752 13.5409L23.0705 13.4972C23.0607 13.3097 23.0404 13.123 23.0097 12.9378L22.5538 8.74312L21.7525 11.1247C21.5798 11.0066 21.3793 10.8956 21.1472 10.7942C21.1026 10.7749 21.0566 10.756 21.0099 10.7375L20.0891 7.07044V7.07039ZM12.1614 11.2098C11.7598 11.2098 11.4437 11.5259 11.4437 11.9276C11.4437 12.0917 11.4971 12.2408 11.587 12.3606C11.9465 12.3634 12.3053 12.392 12.6606 12.4463C12.7958 12.3165 12.8793 12.1334 12.8793 11.9276C12.8793 11.5261 12.563 11.2098 12.1614 11.2098V11.2098ZM11.5734 13.2299C11.526 13.2298 11.479 13.2302 11.4324 13.2311C10.874 13.2424 10.3826 13.3303 10.0275 13.4625C9.7908 13.5508 9.61764 13.6591 9.5233 13.7516C9.42896 13.8441 9.41293 13.8982 9.41293 13.9547C9.41293 14.0674 9.58999 14.3468 10.0756 14.5981C10.5611 14.8494 11.2795 15.0495 12.0735 15.1071C12.8677 15.1648 13.5833 15.0675 14.0568 14.891C14.2935 14.8028 14.4667 14.6945 14.561 14.602C14.6554 14.5096 14.6713 14.4554 14.6713 14.399C14.6713 14.286 14.4943 14.0067 14.0087 13.7555C13.5232 13.5041 12.8049 13.3041 12.0107 13.2466C11.8652 13.236 11.7193 13.2304 11.5734 13.2299ZM11.3091 15.8889L11.1715 17.2604C11.2217 17.2562 11.2723 17.2534 11.3236 17.2534C11.5737 17.2534 11.8127 17.3045 12.0307 17.3964L12.1724 15.9833C11.883 15.9687 11.5947 15.9372 11.309 15.8889L11.3091 15.8889ZM11.3236 18.122C10.7845 18.122 10.357 18.5496 10.357 19.0886C10.357 19.6275 10.7846 20.0551 11.3236 20.0551C11.8624 20.0551 12.2901 19.6274 12.2901 19.0886C12.2901 18.5497 11.8625 18.122 11.3235 18.122H11.3236Z" stroke="black" stroke-width="2" stroke-linejoin="round" mask="url(#path-1-outside-1_1461_13272)"/>
</g>
<defs>
<clipPath id="clip0_1461_13272">
<rect width="24" height="24" fill="white"/>
</clipPath>
</defs>
</svg>
