<svg width="24" height="24" viewBox="0 0 24 24" fill="none" xmlns="http://www.w3.org/2000/svg">
<path d="M12.3545 1.07812C12.5486 1.07812 12.7267 1.17213 12.8379 1.32324L12.8818 1.3916L13.1973 1.98926C13.4925 2.5717 13.727 3.11989 13.9014 3.74023C14.1334 4.56613 14.2534 5.49594 14.2969 6.78027C14.3014 6.91563 14.2504 7.04716 14.1562 7.14453C14.0621 7.2419 13.9324 7.29688 13.7969 7.29688H10.2188C10.081 7.29688 9.94897 7.23991 9.85449 7.13965C9.76025 7.0395 9.71167 6.90485 9.71973 6.76758C9.79215 5.54904 9.92422 4.60405 10.1758 3.75488C10.4288 2.90071 10.7959 2.16433 11.3145 1.35449L11.3594 1.29395C11.472 1.15897 11.6402 1.07812 11.8203 1.07812H12.3545ZM14.5781 21.9219C14.5781 22.4742 14.1304 22.9219 13.5781 22.9219H10.4219C9.86959 22.9219 9.42188 22.4742 9.42188 21.9219V9.67188C9.42188 9.62773 9.42791 9.58363 9.43945 9.54102L9.8457 8.04102C9.90479 7.82317 10.1024 7.67188 10.3281 7.67188H13.7969C14.0375 7.67188 14.2437 7.84359 14.2881 8.08008L14.5693 9.58008C14.575 9.61037 14.5781 9.64106 14.5781 9.67188V21.9219Z" fill="white" stroke="black" stroke-linejoin="round"/>
<path d="M19.041 4.29688C19.2274 4.29688 19.3983 4.38722 19.5049 4.53223L19.5469 4.59668L19.7871 5.05176C20.0126 5.49641 20.1926 5.9187 20.3271 6.39746C20.5062 7.03449 20.5979 7.74779 20.6309 8.72363C20.6354 8.85901 20.5844 8.9905 20.4902 9.08789C20.396 9.18518 20.2663 9.24023 20.1309 9.24023H17.4277C17.29 9.24023 17.158 9.18327 17.0635 9.08301C16.9692 8.98284 16.9206 8.84829 16.9287 8.71094C16.9837 7.78565 17.0845 7.06141 17.2783 6.40723C17.4736 5.74814 17.7562 5.18115 18.1523 4.5625C18.2574 4.3984 18.4403 4.29688 18.6377 4.29688H19.041ZM20.8438 20.1689C20.8438 20.6537 20.4506 21.0469 19.9658 21.0469H17.5811C17.0963 21.0469 16.7031 20.6537 16.7031 20.1689V10.9131C16.7031 10.869 16.7092 10.8248 16.7207 10.7822L17.0273 9.64844L17.0557 9.57031C17.1361 9.39529 17.3122 9.27943 17.5098 9.2793H20.1309L20.2197 9.28711C20.421 9.32321 20.5843 9.48064 20.623 9.6875L20.835 10.8203C20.8407 10.8507 20.8438 10.8822 20.8438 10.9131V20.1689Z" fill="white" stroke="black" stroke-linejoin="round"/>
<path d="M5.49426 4.29688C5.68067 4.29688 5.85155 4.38722 5.95813 4.53223L6.00012 4.59668L6.24036 5.05176C6.4658 5.49641 6.64585 5.9187 6.7804 6.39746C6.95941 7.03449 7.0511 7.74779 7.08411 8.72363C7.08862 8.85901 7.03763 8.9905 6.94348 9.08789C6.84929 9.18518 6.71953 9.24023 6.58411 9.24023H3.88098C3.74322 9.24023 3.6112 9.18327 3.51672 9.08301C3.4224 8.98284 3.37388 8.84829 3.38196 8.71094C3.43695 7.78565 3.53778 7.06141 3.73157 6.40723C3.92682 5.74814 4.20948 5.18115 4.60559 4.5625C4.71067 4.3984 4.89359 4.29688 5.09094 4.29688H5.49426ZM7.297 20.1689C7.297 20.6537 6.90387 21.0469 6.41907 21.0469H4.0343C3.5495 21.0469 3.15637 20.6537 3.15637 20.1689V10.9131C3.15637 10.869 3.16244 10.8248 3.17395 10.7822L3.48059 9.64844L3.50891 9.57031C3.5893 9.39529 3.76547 9.27943 3.96301 9.2793H6.58411L6.67297 9.28711C6.87421 9.32321 7.03751 9.48064 7.07629 9.6875L7.28821 10.8203C7.29391 10.8507 7.297 10.8822 7.297 10.9131V20.1689Z" fill="white" stroke="black" stroke-linejoin="round"/>
</svg>
