<svg width="24" height="24" viewBox="0 0 24 24" fill="none" xmlns="http://www.w3.org/2000/svg">
<g clip-path="url(#clip0_1465_6577)">
<circle cx="12" cy="12" r="11.35" fill="white" stroke="black" stroke-width="1.3"/>
<path d="M18.2507 12.0313C18.3759 12.0108 18.6256 12.0699 18.6257 12.4688V14.125C17.7925 14.2813 15.9946 15.0628 15.4695 16.9375L15.488 16.9766H14.946C14.6096 16.9766 14.3369 17.2496 14.3367 17.586C14.3369 17.9223 14.6096 18.1953 14.946 18.1953H16.0525L16.0632 18.2188L16.8757 19.125C16.9483 19.323 16.8868 19.6871 16.0632 19.5625H7.50073C7.31323 19.5521 6.98187 19.4315 7.35229 18.9375C7.56336 18.6563 8.03198 18.2188 8.03198 18.2188V18.1953H8.78979C9.12587 18.195 9.39894 17.9221 9.39917 17.586C9.39897 17.2498 9.12588 16.977 8.78979 16.9766H8.03198V16.1563L3.72729 13.0782C3.39142 12.836 3.30793 12.5941 3.39135 12.375H7.80542C7.76668 12.25 7.93835 12.0459 8.21069 12.0459C8.66626 12.0459 15.096 12.0313 18.2507 12.0313ZM9.78881 3.16995C10.1106 3.0701 10.4373 3.31058 10.4373 3.64749V10.1748C10.4373 10.2853 10.3475 10.375 10.2371 10.375H8.19995C8.08951 10.375 7.99975 10.2853 7.99975 10.1748V5.25003L9.47338 3.3262C9.51116 3.27686 9.56345 3.24013 9.6228 3.22171L9.78881 3.16995ZM17.8435 6.40628C18.1196 6.40628 18.3435 6.63014 18.3435 6.90628V7.62503C18.3435 7.90116 18.1196 8.12503 17.8435 8.12503H11.0935V6.40628H17.8435Z" fill="black"/>
</g>
<defs>
<clipPath id="clip0_1465_6577">
<rect width="24" height="24" fill="white"/>
</clipPath>
</defs>
</svg>
