<svg width="24" height="24" viewBox="0 0 24 24" fill="none" xmlns="http://www.w3.org/2000/svg">
<g clip-path="url(#clip0_1468_6690)">
<path d="M15.6875 18.5996L15.7529 18.6055C15.9033 18.6303 16.0292 18.7395 16.0723 18.8896L17.291 23.1396C17.3256 23.2604 17.3012 23.3909 17.2256 23.4912C17.15 23.5913 17.0317 23.6504 16.9062 23.6504H7.28125C7.15954 23.6504 7.04465 23.5942 6.96875 23.499C6.89295 23.4039 6.86457 23.2797 6.8916 23.1611L7.86035 18.9111L7.88086 18.8457C7.94212 18.6989 8.08658 18.5996 8.25 18.5996H15.6875Z" fill="white" stroke="black" stroke-width="0.8" stroke-linejoin="round"/>
<path d="M8.09375 22.625L8.9375 18.8125H15L16.0312 22.625H13.2188L12.9062 20.9688H10.9062L10.5938 22.625H8.09375Z" fill="black"/>
<circle cx="11.9844" cy="11.0781" r="8.25937" fill="white" stroke="black" stroke-width="1.2"/>
<path d="M6.76953 9.55469C7.58286 9.55469 8.24219 10.214 8.24219 11.0273C8.24219 11.8407 7.58286 12.5 6.76953 12.5C5.95621 12.5 5.29688 11.8407 5.29688 11.0273C5.29688 10.214 5.95621 9.55469 6.76953 9.55469ZM18.0352 9.77344C18.719 9.77344 19.2734 10.3278 19.2734 11.0117C19.2734 11.6956 18.719 12.25 18.0352 12.25C17.3513 12.25 16.7969 11.6956 16.7969 11.0117C16.7969 10.3278 17.3513 9.77344 18.0352 9.77344ZM10.5273 8.17188C11.4658 8.17188 12.2266 8.93264 12.2266 9.87109C12.2266 10.8095 11.4658 11.5703 10.5273 11.5703C9.58889 11.5703 8.82812 10.8095 8.82812 9.87109C8.82812 8.93264 9.58889 8.17188 10.5273 8.17188ZM14.6094 8.375C15.4033 8.375 16.0469 9.01859 16.0469 9.8125C16.0469 10.6064 15.4033 11.25 14.6094 11.25C13.8155 11.25 13.1719 10.6064 13.1719 9.8125C13.1719 9.01859 13.8155 8.375 14.6094 8.375Z" fill="black"/>
<circle cx="16.3594" cy="12.9219" r="2.21563" fill="black" stroke="white" stroke-width="0.4"/>
<circle cx="7.6875" cy="13.0938" r="2.04375" fill="black" stroke="white" stroke-width="0.4"/>
<circle cx="12.1484" cy="12.1797" r="2.04375" fill="black" stroke="white" stroke-width="0.4"/>
<circle cx="10.125" cy="14.9375" r="2.6875" fill="black" stroke="white" stroke-width="0.5"/>
<circle cx="13.7344" cy="15.3594" r="2.60938" fill="black" stroke="white" stroke-width="0.5"/>
<path d="M15.3125 0.380859L15.374 0.385742C15.5143 0.40752 15.6348 0.503196 15.6865 0.638672L16.749 3.41992C16.7959 3.54281 16.7787 3.68073 16.7041 3.78906C16.6295 3.89748 16.5066 3.96289 16.375 3.96289H7.59375C7.47226 3.96289 7.35716 3.90736 7.28125 3.8125C7.20537 3.71764 7.17649 3.59313 7.20312 3.47461L7.82812 0.693359L7.84961 0.62793C7.91066 0.480738 8.05498 0.380859 8.21875 0.380859H15.3125Z" fill="white" stroke="black" stroke-width="0.8" stroke-linejoin="round"/>
<path d="M8.46875 2.90625L8.78125 1.40625H14.8125L15.4375 2.90625H8.46875Z" fill="black"/>
</g>
<defs>
<clipPath id="clip0_1468_6690">
<rect width="24" height="24" fill="white"/>
</clipPath>
</defs>
</svg>
