<svg width="24" height="24" viewBox="0 0 24 24" fill="none" xmlns="http://www.w3.org/2000/svg">
<g clip-path="url(#clip0_1468_6786)">
<circle cx="12" cy="12" r="11.35" fill="white" stroke="black" stroke-width="1.3"/>
<path d="M17.25 4.6875V7.03125L13.8398 7.52344C14.9168 8.15189 15.6406 9.31941 15.6406 10.6562C15.6406 12.1071 14.7879 13.3582 13.5566 13.9375H14.9375L16.5312 11.1562H18.8125L17.1875 16.7188L17.8438 18.9688H17.1875L15.875 16.9375H7.96875L6.59375 18.9688H5.90625L6.59375 16.7188L5.21875 11.1562H7.28125L8.875 13.9375H10.4746C9.24331 13.3582 8.39062 12.1071 8.39062 10.6562C8.39062 9.31737 9.11662 8.14827 10.1963 7.52051L6.65625 7.03125V4.6875L10.6094 3.96875H13.4688L17.25 4.6875ZM12.0156 8.03125C10.5659 8.03125 9.39062 9.2065 9.39062 10.6562C9.39062 12.106 10.5659 13.2812 12.0156 13.2812C13.4654 13.2812 14.6406 12.106 14.6406 10.6562C14.6406 9.2065 13.4654 8.03125 12.0156 8.03125Z" fill="black"/>
</g>
<defs>
<clipPath id="clip0_1468_6786">
<rect width="24" height="24" fill="white"/>
</clipPath>
</defs>
</svg>
