<svg width="24" height="24" viewBox="0 0 24 24" fill="none" xmlns="http://www.w3.org/2000/svg">
<mask id="path-1-outside-1_1639_7493" maskUnits="userSpaceOnUse" x="5.60352" y="3.91113" width="13" height="20" fill="black">
<rect fill="white" x="5.60352" y="3.91113" width="13" height="20"/>
<path d="M16.4971 22.5625H7.50293L6.60352 21.2695H17.3965L16.4971 22.5625ZM17.3955 6.20312H17.3965V20.3701H6.60352V6.20312H6.60449L7.50293 4.91113H16.4971L17.3955 6.20312Z"/>
</mask>
<path d="M16.4971 22.5625H7.50293L6.60352 21.2695H17.3965L16.4971 22.5625ZM17.3955 6.20312H17.3965V20.3701H6.60352V6.20312H6.60449L7.50293 4.91113H16.4971L17.3955 6.20312Z" fill="white"/>
<path d="M16.4971 22.5625V23.5625C16.8244 23.5625 17.1311 23.4023 17.318 23.1335L16.4971 22.5625ZM7.50293 22.5625L6.68201 23.1335C6.86895 23.4023 7.17557 23.5625 7.50293 23.5625V22.5625ZM6.60352 21.2695V20.2695C6.23117 20.2695 5.88966 20.4764 5.71722 20.8064C5.54478 21.1364 5.56997 21.5349 5.7826 21.8406L6.60352 21.2695ZM17.3965 21.2695L18.2174 21.8406C18.43 21.5349 18.4552 21.1364 18.2828 20.8064C18.1103 20.4764 17.7688 20.2695 17.3965 20.2695V21.2695ZM17.3955 6.20312L16.5745 6.77404C16.7614 7.04285 17.0681 7.20312 17.3955 7.20312V6.20312ZM17.3965 6.20312H18.3965C18.3965 5.65084 17.9488 5.20312 17.3965 5.20312V6.20312ZM17.3965 20.3701V21.3701C17.9488 21.3701 18.3965 20.9224 18.3965 20.3701H17.3965ZM6.60352 20.3701H5.60352C5.60352 20.9224 6.05123 21.3701 6.60352 21.3701V20.3701ZM6.60352 6.20312V5.20312C6.05123 5.20312 5.60352 5.65084 5.60352 6.20312H6.60352ZM6.60449 6.20312V7.20312C6.9319 7.20312 7.23857 7.04285 7.4255 6.77404L6.60449 6.20312ZM7.50293 4.91113V3.91113C7.17552 3.91113 6.86885 4.07141 6.68192 4.34021L7.50293 4.91113ZM16.4971 4.91113L17.3181 4.34021C17.1312 4.07141 16.8245 3.91113 16.4971 3.91113V4.91113ZM16.4971 22.5625V21.5625H7.50293V22.5625V23.5625H16.4971V22.5625ZM7.50293 22.5625L8.32385 21.9915L7.42443 20.6985L6.60352 21.2695L5.7826 21.8406L6.68201 23.1335L7.50293 22.5625ZM6.60352 21.2695V22.2695H17.3965V21.2695V20.2695H6.60352V21.2695ZM17.3965 21.2695L16.5756 20.6985L15.6762 21.9915L16.4971 22.5625L17.318 23.1335L18.2174 21.8406L17.3965 21.2695ZM17.3955 6.20312V7.20312H17.3965V6.20312V5.20312H17.3955V6.20312ZM17.3965 6.20312H16.3965V20.3701H17.3965H18.3965V6.20312H17.3965ZM17.3965 20.3701V19.3701H6.60352V20.3701V21.3701H17.3965V20.3701ZM6.60352 20.3701H7.60352V6.20312H6.60352H5.60352V20.3701H6.60352ZM6.60352 6.20312V7.20312H6.60449V6.20312V5.20312H6.60352V6.20312ZM6.60449 6.20312L7.4255 6.77404L8.32394 5.48205L7.50293 4.91113L6.68192 4.34021L5.78349 5.63221L6.60449 6.20312ZM7.50293 4.91113V5.91113H16.4971V4.91113V3.91113H7.50293V4.91113ZM16.4971 4.91113L15.6761 5.48205L16.5745 6.77404L17.3955 6.20312L18.2165 5.63221L17.3181 4.34021L16.4971 4.91113Z" fill="black" mask="url(#path-1-outside-1_1639_7493)"/>
<circle cx="11.9999" cy="11.5131" r="3.7499" fill="black"/>
<rect x="7.05326" y="3.1128" width="9.89349" height="1.49941" rx="0.749704" fill="white" stroke="black" stroke-width="0.899408"/>
<path d="M12.7598 1.49777C12.9709 0.928577 13.6035 0.637861 14.1729 0.848358L15.4805 1.33273C16.0497 1.54386 16.3405 2.17639 16.1299 2.74582L15.8271 3.56223H11.9951L12.7598 1.49777Z" fill="black"/>
<path d="M13.5586 2.21985C13.6546 1.9612 13.9424 1.82916 14.2012 1.92493L14.7578 2.13098C15.0167 2.22689 15.1485 2.51468 15.0527 2.77356L14.7607 3.56262H13.0615L13.5586 2.21985Z" fill="white"/>
<rect x="13.8975" y="2.47607" width="0.780544" height="1.1939" rx="0.1" transform="rotate(20.3287 13.8975 2.47607)" fill="black"/>
</svg>
