<svg width="24" height="24" viewBox="0 0 24 24" fill="none" xmlns="http://www.w3.org/2000/svg">
<g clip-path="url(#clip0_1468_6865)">
<mask id="path-1-outside-1_1468_6865" maskUnits="userSpaceOnUse" x="0" y="4.1026" width="24" height="19" fill="black">
<rect fill="white" y="4.1026" width="24" height="19"/>
<path d="M19.8545 6.33698V7.02643C19.8648 7.03424 21.3447 8.15992 21.3447 8.40533C21.3446 8.65161 20.8027 9.03326 20.8027 9.03326V10.4249C19.9131 10.8122 19.4719 11.1766 19.0908 12.0381L21.8125 19.1797L16.5303 20.8546L14.9912 13.9219H10.6064C10.5089 13.9219 10.4254 13.8511 10.4092 13.7549L10.0703 11.7501L9.60938 11.2862H7.29492V10.794H2.46777V9.04596H2V7.54303L2.70215 6.53326L17.6387 6.50885L18.3281 6.1026L19.8545 6.33698ZM11.582 10.7569C11.234 10.7571 10.9521 11.0397 10.9521 11.3878V12.3682C10.9524 12.7161 11.2342 12.9979 11.582 12.9981H14.1143C14.4622 12.998 14.7439 12.7161 14.7441 12.3682V11.3878C14.7441 11.0396 14.4624 10.757 14.1143 10.7569H13.9072C13.9179 11.6037 13.7837 12.0524 13.0205 12.7022H11.8389C12.7143 12.3601 12.9435 11.989 12.6846 10.9698L12.627 10.7569H11.582Z"/>
</mask>
<path d="M19.8545 6.33698H21.3545C21.3545 5.59645 20.8141 4.96674 20.0821 4.85435L19.8545 6.33698ZM19.8545 7.02643H18.3545C18.3545 7.495 18.5735 7.93665 18.9464 8.22032L19.8545 7.02643ZM21.3447 8.40533L22.8447 8.40624V8.40533H21.3447ZM20.8027 9.03326L19.939 7.80694C19.5401 8.08791 19.3027 8.54534 19.3027 9.03326H20.8027ZM20.8027 10.4249L21.4015 11.8002C21.9488 11.5619 22.3027 11.0218 22.3027 10.4249H20.8027ZM19.0908 12.0381L17.719 11.4313C17.5591 11.7929 17.5484 12.2029 17.6892 12.5723L19.0908 12.0381ZM21.8125 19.1797L22.2659 20.6096C22.6592 20.4849 22.9838 20.2036 23.1633 19.832C23.3427 19.4603 23.3611 19.0312 23.2142 18.6456L21.8125 19.1797ZM16.5303 20.8546L15.0659 21.1796C15.1571 21.5905 15.4168 21.9442 15.7815 22.1543C16.1462 22.3644 16.5824 22.4116 16.9836 22.2844L16.5303 20.8546ZM14.9912 13.9219L16.4556 13.5968C16.3032 12.9104 15.6944 12.4219 14.9912 12.4219V13.9219ZM10.6064 13.9219L10.6059 15.4219H10.6064V13.9219ZM10.4092 13.7549L8.93016 14.0049L8.93017 14.005L10.4092 13.7549ZM10.0703 11.7501L11.5493 11.5001C11.4977 11.1946 11.3527 10.9125 11.1343 10.6928L10.0703 11.7501ZM9.60938 11.2862L10.6734 10.2289C10.3918 9.94554 10.0088 9.78619 9.60938 9.78619V11.2862ZM7.29492 11.2862H5.79492C5.79492 12.1146 6.46649 12.7862 7.29492 12.7862V11.2862ZM7.29492 10.794H8.79492C8.79492 9.96558 8.12335 9.29401 7.29492 9.29401V10.794ZM2.46777 10.794H0.967773C0.967773 11.6224 1.63935 12.294 2.46777 12.294V10.794ZM2.46777 9.04596H3.96777C3.96777 8.21753 3.2962 7.54596 2.46777 7.54596V9.04596ZM2 9.04596H0.5C0.5 9.87439 1.17157 10.546 2 10.546L2 9.04596ZM2 7.54303L0.768472 6.68668C0.593685 6.93804 0.5 7.23687 0.5 7.54303H2ZM2.70215 6.53326L2.6997 5.03327C2.20944 5.03407 1.75051 5.2744 1.47062 5.67691L2.70215 6.53326ZM17.6387 6.50885L17.6411 8.00885C17.9081 8.00841 18.1701 7.93672 18.4002 7.80119L17.6387 6.50885ZM18.3281 6.1026L18.5558 4.61998C18.214 4.56749 17.8646 4.63472 17.5666 4.81026L18.3281 6.1026ZM11.582 10.7569V9.2569L11.5812 9.2569L11.582 10.7569ZM10.9521 12.3682H9.45215L9.45215 12.3694L10.9521 12.3682ZM11.582 12.9981L11.5812 14.4981H11.582V12.9981ZM14.1143 12.9981V14.4981H14.1147L14.1143 12.9981ZM14.7441 12.3682L16.2441 12.3694V12.3682H14.7441ZM14.1143 10.7569L14.1147 9.2569H14.1143V10.7569ZM13.9072 10.7569V9.2569C13.5061 9.2569 13.1217 9.41753 12.8399 9.70292C12.5581 9.98832 12.4023 10.3747 12.4073 10.7757L13.9072 10.7569ZM13.0205 12.7022V14.2022C13.3769 14.2022 13.7216 14.0753 13.9929 13.8443L13.0205 12.7022ZM11.8389 12.7022L11.2928 11.3051C10.621 11.5677 10.2312 12.2712 10.3648 12.98C10.4984 13.6888 11.1176 14.2022 11.8389 14.2022V12.7022ZM12.6846 10.9698L14.1384 10.6004C14.1365 10.5929 14.1345 10.5854 14.1325 10.5779L12.6846 10.9698ZM12.627 10.7569L14.0749 10.365C13.8979 9.71105 13.3045 9.2569 12.627 9.2569V10.7569ZM19.8545 6.33698H18.3545V7.02643H19.8545H21.3545V6.33698H19.8545ZM19.8545 7.02643L18.9464 8.22032C18.9464 8.22034 18.9465 8.22037 18.9466 8.22044C18.9467 8.22053 18.9469 8.22067 18.9471 8.22087C18.9477 8.22129 18.9486 8.22196 18.9498 8.22288C18.9522 8.22472 18.9559 8.22757 18.9609 8.23137C18.9708 8.23898 18.9857 8.25039 19.0047 8.2651C19.0429 8.29456 19.0976 8.33709 19.1633 8.38885C19.2958 8.49325 19.4679 8.6313 19.6365 8.77351C19.8112 8.92085 19.9563 9.05092 20.0479 9.14331C20.097 9.19284 20.0991 9.20003 20.0787 9.17276C20.069 9.15975 20.0291 9.10579 19.9859 9.01924C19.9634 8.9741 19.9315 8.9033 19.9038 8.81115C19.8769 8.72135 19.8447 8.581 19.8447 8.40533H21.3447H22.8447C22.8447 8.04962 22.7226 7.78459 22.6703 7.67975C22.6054 7.54973 22.5337 7.44642 22.4835 7.37912C22.3822 7.24329 22.2686 7.12221 22.1788 7.03158C21.9925 6.84364 21.767 6.64578 21.5704 6.48005C21.1696 6.14205 20.7729 5.84036 20.7626 5.83254L19.8545 7.02643ZM21.3447 8.40533L19.8447 8.40443C19.8449 8.16704 19.908 7.99149 19.9465 7.90339C19.9867 7.81105 20.0275 7.75197 20.0437 7.7295C20.0737 7.6879 20.0845 7.68315 20.0513 7.71406C20.0252 7.73836 19.9933 7.7648 19.9648 7.78708C19.9516 7.79735 19.9415 7.80489 19.9362 7.80878C19.9337 7.81069 19.9324 7.81158 19.9328 7.81133C19.9329 7.81121 19.9335 7.81079 19.9345 7.81006C19.935 7.8097 19.9357 7.80926 19.9364 7.80874C19.9368 7.80848 19.9372 7.8082 19.9376 7.8079C19.9378 7.80775 19.938 7.80759 19.9382 7.80743C19.9384 7.80735 19.9385 7.80723 19.9386 7.80719C19.9388 7.80706 19.939 7.80694 20.8027 9.03326C21.6665 10.2596 21.6667 10.2595 21.6669 10.2593C21.667 10.2593 21.6671 10.2592 21.6673 10.2591C21.6675 10.2589 21.6678 10.2587 21.6681 10.2585C21.6686 10.2581 21.6692 10.2577 21.6699 10.2572C21.6711 10.2563 21.6725 10.2554 21.674 10.2543C21.6771 10.2521 21.6807 10.2495 21.6849 10.2465C21.6932 10.2405 21.7036 10.233 21.7158 10.224C21.7401 10.206 21.7724 10.1818 21.81 10.1525C21.8831 10.0955 21.9867 10.0111 22.0961 9.90924C22.1984 9.81396 22.3446 9.66762 22.4763 9.48519C22.5721 9.35236 22.8444 8.95758 22.8447 8.40624L21.3447 8.40533ZM20.8027 9.03326H19.3027V10.4249H20.8027H22.3027V9.03326H20.8027ZM20.8027 10.4249L20.204 9.04955C19.6947 9.27127 19.1882 9.53852 18.7414 9.94899C18.28 10.3728 17.9677 10.8691 17.719 11.4313L19.0908 12.0381L20.4626 12.645C20.595 12.3456 20.6939 12.229 20.7708 12.1584C20.8622 12.0744 21.0211 11.9658 21.4015 11.8002L20.8027 10.4249ZM19.0908 12.0381L17.6892 12.5723L20.4108 19.7139L21.8125 19.1797L23.2142 18.6456L20.4925 11.504L19.0908 12.0381ZM21.8125 19.1797L21.3591 17.7499L16.0769 19.4247L16.5303 20.8546L16.9836 22.2844L22.2659 20.6096L21.8125 19.1797ZM16.5303 20.8546L17.9946 20.5295L16.4556 13.5968L14.9912 13.9219L13.5269 14.247L15.0659 21.1796L16.5303 20.8546ZM14.9912 13.9219V12.4219H10.6064V13.9219V15.4219H14.9912V13.9219ZM10.6064 13.9219L10.607 12.4219C11.2435 12.4222 11.7829 12.8819 11.8882 13.5049L10.4092 13.7549L8.93017 14.005C9.06804 14.8204 9.77429 15.4216 10.6059 15.4219L10.6064 13.9219ZM10.4092 13.7549L11.8882 13.505L11.5493 11.5001L10.0703 11.7501L8.59129 12L8.93016 14.0049L10.4092 13.7549ZM10.0703 11.7501L11.1343 10.6928L10.6734 10.2289L9.60938 11.2862L8.54536 12.3435L9.0063 12.8074L10.0703 11.7501ZM9.60938 11.2862V9.78619H7.29492V11.2862V12.7862H9.60938V11.2862ZM7.29492 11.2862H8.79492V10.794H7.29492H5.79492V11.2862H7.29492ZM7.29492 10.794V9.29401H2.46777V10.794V12.294H7.29492V10.794ZM2.46777 10.794H3.96777V9.04596H2.46777H0.967773V10.794H2.46777ZM2.46777 9.04596V7.54596H2V9.04596V10.546H2.46777V9.04596ZM2 9.04596H3.5V7.54303H2H0.5V9.04596H2ZM2 7.54303L3.23153 8.39938L3.93368 7.38962L2.70215 6.53326L1.47062 5.67691L0.768472 6.68668L2 7.54303ZM2.70215 6.53326L2.7046 8.03326L17.6411 8.00885L17.6387 6.50885L17.6362 5.00885L2.6997 5.03327L2.70215 6.53326ZM17.6387 6.50885L18.4002 7.80119L19.0896 7.39494L18.3281 6.1026L17.5666 4.81026L16.8772 5.21651L17.6387 6.50885ZM18.3281 6.1026L18.1005 7.58522L19.6268 7.8196L19.8545 6.33698L20.0821 4.85435L18.5558 4.61998L18.3281 6.1026ZM11.582 10.7569L11.5812 9.2569C10.4032 9.25759 9.45215 10.2134 9.45215 11.3878H10.9521H12.4521C12.4521 11.866 12.0648 12.2566 11.5829 12.2569L11.582 10.7569ZM10.9521 11.3878H9.45215V12.3682H10.9521H12.4521V11.3878H10.9521ZM10.9521 12.3682L9.45215 12.3694C9.45303 13.5445 10.4053 14.4974 11.5812 14.4981L11.582 12.9981L11.5829 11.4981C12.063 11.4984 12.4518 11.8876 12.4521 12.3671L10.9521 12.3682ZM11.582 12.9981V14.4981H14.1143V12.9981V11.4981H11.582V12.9981ZM14.1143 12.9981L14.1147 14.4981C15.2914 14.4978 16.2433 13.5441 16.2441 12.3694L14.7441 12.3682L13.2441 12.3671C13.2445 11.8882 13.633 11.4982 14.1138 11.4981L14.1143 12.9981ZM14.7441 12.3682H16.2441V11.3878H14.7441H13.2441V12.3682H14.7441ZM14.7441 11.3878H16.2441C16.2441 10.2138 15.2935 9.25723 14.1147 9.2569L14.1143 10.7569L14.1138 12.2569C13.6312 12.2568 13.2441 11.8655 13.2441 11.3878H14.7441ZM14.1143 10.7569V9.2569H13.9072V10.7569V12.2569H14.1143V10.7569ZM13.9072 10.7569L12.4073 10.7757C12.4119 11.1352 12.3778 11.2067 12.3743 11.215C12.374 11.2158 12.34 11.3116 12.0481 11.5601L13.0205 12.7022L13.9929 13.8443C14.4642 13.4431 14.8789 12.9896 15.1338 12.3919C15.3855 11.8017 15.4132 11.2254 15.4071 10.738L13.9072 10.7569ZM13.0205 12.7022V11.2022H11.8389V12.7022V14.2022H13.0205V12.7022ZM11.8389 12.7022L12.3849 14.0993C12.8812 13.9053 13.6216 13.5575 14.0228 12.7725C14.42 11.9951 14.2855 11.1797 14.1384 10.6004L12.6846 10.9698L11.2308 11.3392C11.2543 11.4317 11.2682 11.5014 11.2762 11.5527C11.2842 11.6041 11.2848 11.6288 11.2848 11.6325C11.2848 11.6355 11.2844 11.6117 11.2932 11.5692C11.3025 11.5247 11.3203 11.4682 11.3514 11.4073C11.3826 11.3463 11.4192 11.2965 11.4533 11.2593C11.486 11.2236 11.5102 11.2061 11.5139 11.2035C11.5168 11.2014 11.5035 11.2111 11.465 11.2304C11.4266 11.2496 11.3712 11.2745 11.2928 11.3051L11.8389 12.7022ZM12.6846 10.9698L14.1325 10.5779L14.0749 10.365L12.627 10.7569L11.179 11.1488L11.2367 11.3617L12.6846 10.9698ZM12.627 10.7569V9.2569H11.582V10.7569V12.2569H12.627V10.7569Z" fill="black" mask="url(#path-1-outside-1_1468_6865)"/>
<mask id="path-3-outside-2_1468_6865" maskUnits="userSpaceOnUse" x="1" y="5.1026" width="22" height="17" fill="black">
<rect fill="white" x="1" y="5.1026" width="22" height="17"/>
<path d="M19.8545 6.33698V7.02643C19.8648 7.03424 21.3447 8.15992 21.3447 8.40533C21.3446 8.65161 20.8027 9.03326 20.8027 9.03326V10.4249C19.9131 10.8122 19.4719 11.1766 19.0908 12.0381L21.8125 19.1797L16.5303 20.8546L14.9912 13.9219H10.6064C10.5089 13.9219 10.4254 13.8511 10.4092 13.7549L10.0703 11.7501L9.60938 11.2862H7.29492V10.794H2.46777V9.04596H2V7.54303L2.70215 6.53326L17.6387 6.50885L18.3281 6.1026L19.8545 6.33698ZM11.582 10.7569C11.234 10.7571 10.9521 11.0397 10.9521 11.3878V12.3682C10.9524 12.7161 11.2342 12.9979 11.582 12.9981H14.1143C14.4622 12.998 14.7439 12.7161 14.7441 12.3682V11.3878C14.7441 11.0396 14.4624 10.757 14.1143 10.7569H13.9072C13.9179 11.6037 13.7837 12.0524 13.0205 12.7022H11.8389C12.7143 12.3601 12.9435 11.989 12.6846 10.9698L12.627 10.7569H11.582Z"/>
</mask>
<path d="M19.8545 6.33698V7.02643C19.8648 7.03424 21.3447 8.15992 21.3447 8.40533C21.3446 8.65161 20.8027 9.03326 20.8027 9.03326V10.4249C19.9131 10.8122 19.4719 11.1766 19.0908 12.0381L21.8125 19.1797L16.5303 20.8546L14.9912 13.9219H10.6064C10.5089 13.9219 10.4254 13.8511 10.4092 13.7549L10.0703 11.7501L9.60938 11.2862H7.29492V10.794H2.46777V9.04596H2V7.54303L2.70215 6.53326L17.6387 6.50885L18.3281 6.1026L19.8545 6.33698ZM11.582 10.7569C11.234 10.7571 10.9521 11.0397 10.9521 11.3878V12.3682C10.9524 12.7161 11.2342 12.9979 11.582 12.9981H14.1143C14.4622 12.998 14.7439 12.7161 14.7441 12.3682V11.3878C14.7441 11.0396 14.4624 10.757 14.1143 10.7569H13.9072C13.9179 11.6037 13.7837 12.0524 13.0205 12.7022H11.8389C12.7143 12.3601 12.9435 11.989 12.6846 10.9698L12.627 10.7569H11.582Z" fill="black"/>
<path d="M19.8545 6.33698H20.8545C20.8545 5.84329 20.4942 5.42349 20.0063 5.34856L19.8545 6.33698ZM19.8545 7.02643H18.8545C18.8545 7.33881 19.0005 7.63324 19.2491 7.82235L19.8545 7.02643ZM21.3447 8.40533L22.3447 8.40594V8.40533H21.3447ZM20.8027 9.03326L20.2269 8.21571C19.9609 8.40303 19.8027 8.70798 19.8027 9.03326H20.8027ZM20.8027 10.4249L21.2019 11.3417C21.5668 11.1829 21.8027 10.8228 21.8027 10.4249H20.8027ZM19.0908 12.0381L18.1763 11.6336C18.0697 11.8746 18.0625 12.148 18.1564 12.3943L19.0908 12.0381ZM21.8125 19.1797L22.1147 20.133C22.377 20.0498 22.5934 19.8623 22.713 19.6146C22.8326 19.3668 22.8449 19.0807 22.7469 18.8236L21.8125 19.1797ZM16.5303 20.8546L15.554 21.0713C15.6149 21.3452 15.788 21.581 16.0311 21.7211C16.2742 21.8611 16.565 21.8926 16.8325 21.8078L16.5303 20.8546ZM14.9912 13.9219L15.9674 13.7052C15.8658 13.2476 15.46 12.9219 14.9912 12.9219V13.9219ZM10.6064 13.9219L10.6061 14.9219H10.6064V13.9219ZM10.4092 13.7549L9.42316 13.9216L9.42317 13.9217L10.4092 13.7549ZM10.0703 11.7501L11.0563 11.5834C11.0219 11.3797 10.9253 11.1917 10.7797 11.0452L10.0703 11.7501ZM9.60938 11.2862L10.3187 10.5813C10.131 10.3924 9.87569 10.2862 9.60938 10.2862V11.2862ZM7.29492 11.2862H6.29492C6.29492 11.8385 6.74264 12.2862 7.29492 12.2862V11.2862ZM7.29492 10.794H8.29492C8.29492 10.2417 7.84721 9.79401 7.29492 9.79401V10.794ZM2.46777 10.794H1.46777C1.46777 11.3463 1.91549 11.794 2.46777 11.794V10.794ZM2.46777 9.04596H3.46777C3.46777 8.49367 3.02006 8.04596 2.46777 8.04596V9.04596ZM2 9.04596H1C1 9.59824 1.44772 10.046 2 10.046V9.04596ZM2 7.54303L1.17898 6.97213C1.06246 7.1397 1 7.33892 1 7.54303H2ZM2.70215 6.53326L2.70051 5.53327C2.37367 5.5338 2.06772 5.69402 1.88113 5.96236L2.70215 6.53326ZM17.6387 6.50885L17.6403 7.50885C17.8183 7.50856 17.993 7.46077 18.1463 7.37041L17.6387 6.50885ZM18.3281 6.1026L18.4799 5.11418C18.252 5.0792 18.0191 5.12401 17.8205 5.24104L18.3281 6.1026ZM11.582 10.7569V9.7569L11.5814 9.7569L11.582 10.7569ZM10.9521 12.3682H9.95215L9.95215 12.369L10.9521 12.3682ZM11.582 12.9981L11.5814 13.9981H11.582V12.9981ZM14.1143 12.9981V13.9981H14.1145L14.1143 12.9981ZM14.7441 12.3682L15.7441 12.369V12.3682H14.7441ZM14.1143 10.7569L14.1145 9.7569H14.1143V10.7569ZM13.9072 10.7569V9.7569C13.6398 9.7569 13.3836 9.86399 13.1957 10.0542C13.0078 10.2445 12.9039 10.5021 12.9073 10.7695L13.9072 10.7569ZM13.0205 12.7022V13.7022C13.2581 13.7022 13.4879 13.6176 13.6688 13.4636L13.0205 12.7022ZM11.8389 12.7022L11.4748 11.7708C11.027 11.9459 10.7671 12.4149 10.8562 12.8874C10.9452 13.36 11.358 13.7022 11.8389 13.7022V12.7022ZM12.6846 10.9698L13.6538 10.7235C13.6525 10.7185 13.6512 10.7135 13.6498 10.7085L12.6846 10.9698ZM12.627 10.7569L13.5922 10.4957C13.4742 10.0597 13.0786 9.7569 12.627 9.7569V10.7569ZM19.8545 6.33698H18.8545V7.02643H19.8545H20.8545V6.33698H19.8545ZM19.8545 7.02643L19.2491 7.82235C19.2508 7.82365 19.6073 8.09481 19.9588 8.39126C20.1372 8.54167 20.2957 8.68304 20.403 8.79135C20.4589 8.84774 20.4796 8.87391 20.4795 8.87382C20.4782 8.872 20.4732 8.86524 20.466 8.85397C20.459 8.84313 20.447 8.82346 20.4333 8.79599C20.4165 8.7623 20.3447 8.61691 20.3447 8.40533H21.3447H22.3447C22.3447 8.16308 22.2614 7.98014 22.2229 7.90299C22.176 7.80908 22.1229 7.73197 22.0827 7.67806C22.0017 7.56942 21.9066 7.46732 21.8236 7.38353C21.6531 7.21152 21.441 7.02496 21.2481 6.86229C20.8571 6.5326 20.4685 6.23702 20.4599 6.2305L19.8545 7.02643ZM21.3447 8.40533L20.3447 8.40473C20.3448 8.25673 20.3841 8.15067 20.4048 8.10327C20.4267 8.05304 20.4468 8.02536 20.4491 8.02212C20.4522 8.01785 20.4368 8.03829 20.3921 8.07993C20.3521 8.11716 20.3083 8.15325 20.2723 8.18131C20.2551 8.19477 20.2413 8.20508 20.2328 8.21132C20.2286 8.21441 20.2259 8.2164 20.2248 8.21719C20.2242 8.21759 20.2241 8.21767 20.2245 8.21743C20.2246 8.21731 20.2249 8.21711 20.2253 8.21682C20.2255 8.21668 20.2257 8.21652 20.226 8.21633C20.2261 8.21624 20.2263 8.21614 20.2264 8.21604C20.2265 8.21599 20.2266 8.2159 20.2266 8.21588C20.2268 8.2158 20.2269 8.21571 20.8027 9.03326C21.3786 9.85082 21.3787 9.85073 21.3788 9.85064C21.3789 9.85061 21.379 9.85052 21.3791 9.85046C21.3793 9.85033 21.3795 9.8502 21.3797 9.85006C21.3801 9.84978 21.3805 9.84948 21.3809 9.84915C21.3819 9.8485 21.3829 9.84774 21.3841 9.84689C21.3865 9.84519 21.3894 9.8431 21.3929 9.84064C21.3997 9.83572 21.4086 9.82928 21.4192 9.82145C21.4404 9.80585 21.4689 9.78442 21.5025 9.75825C21.5681 9.70706 21.6598 9.63234 21.7553 9.54338C21.8461 9.45882 21.9661 9.33766 22.0708 9.19257C22.1517 9.08055 22.3445 8.79402 22.3447 8.40594L21.3447 8.40533ZM20.8027 9.03326H19.8027V10.4249H20.8027H21.8027V9.03326H20.8027ZM20.8027 10.4249L20.4036 9.50799C19.9158 9.72035 19.4672 9.96117 19.0796 10.3172C18.6823 10.6822 18.4056 11.1152 18.1763 11.6336L19.0908 12.0381L20.0053 12.4427C20.1571 12.0996 20.2916 11.9197 20.4326 11.7901C20.5832 11.6518 20.8001 11.5167 21.2019 11.3417L20.8027 10.4249ZM19.0908 12.0381L18.1564 12.3943L20.8781 19.5359L21.8125 19.1797L22.7469 18.8236L20.0253 11.682L19.0908 12.0381ZM21.8125 19.1797L21.5103 18.2265L16.228 19.9013L16.5303 20.8546L16.8325 21.8078L22.1147 20.133L21.8125 19.1797ZM16.5303 20.8546L17.5065 20.6378L15.9674 13.7052L14.9912 13.9219L14.015 14.1387L15.554 21.0713L16.5303 20.8546ZM14.9912 13.9219V12.9219H10.6064V13.9219V14.9219H14.9912V13.9219ZM10.6064 13.9219L10.6068 12.9219C10.9986 12.9221 11.3304 13.205 11.3952 13.5882L10.4092 13.7549L9.42317 13.9217C9.52051 14.4973 10.0192 14.9217 10.6061 14.9219L10.6064 13.9219ZM10.4092 13.7549L11.3952 13.5883L11.0563 11.5834L10.0703 11.7501L9.0843 11.9167L9.42316 13.9216L10.4092 13.7549ZM10.0703 11.7501L10.7797 11.0452L10.3187 10.5813L9.60938 11.2862L8.90003 11.9911L9.36097 12.4549L10.0703 11.7501ZM9.60938 11.2862V10.2862H7.29492V11.2862V12.2862H9.60938V11.2862ZM7.29492 11.2862H8.29492V10.794H7.29492H6.29492V11.2862H7.29492ZM7.29492 10.794V9.79401H2.46777V10.794V11.794H7.29492V10.794ZM2.46777 10.794H3.46777V9.04596H2.46777H1.46777V10.794H2.46777ZM2.46777 9.04596V8.04596H2V9.04596V10.046H2.46777V9.04596ZM2 9.04596H3V7.54303H2H1V9.04596H2ZM2 7.54303L2.82102 8.11393L3.52317 7.10417L2.70215 6.53326L1.88113 5.96236L1.17898 6.97213L2 7.54303ZM2.70215 6.53326L2.70378 7.53326L17.6403 7.50885L17.6387 6.50885L17.637 5.50885L2.70051 5.53327L2.70215 6.53326ZM17.6387 6.50885L18.1463 7.37041L18.8358 6.96416L18.3281 6.1026L17.8205 5.24104L17.131 5.64729L17.6387 6.50885ZM18.3281 6.1026L18.1764 7.09102L19.7027 7.32539L19.8545 6.33698L20.0063 5.34856L18.4799 5.11418L18.3281 6.1026ZM11.582 10.7569L11.5814 9.7569C10.6802 9.75742 9.95215 10.4888 9.95215 11.3878H10.9521H11.9521C11.9521 11.5905 11.7879 11.7568 11.5826 11.7569L11.582 10.7569ZM10.9521 11.3878H9.95215V12.3682H10.9521H11.9521V11.3878H10.9521ZM10.9521 12.3682L9.95215 12.369C9.95283 13.2683 10.6816 13.9976 11.5814 13.9981L11.582 12.9981L11.5826 11.9981C11.7868 11.9982 11.952 12.1638 11.9521 12.3675L10.9521 12.3682ZM11.582 12.9981V13.9981H14.1143V12.9981V11.9981H11.582V12.9981ZM14.1143 12.9981L14.1145 13.9981C15.015 13.9979 15.7435 13.2681 15.7441 12.369L14.7441 12.3682L13.7441 12.3675C13.7443 12.1641 13.9094 11.9982 14.114 11.9981L14.1143 12.9981ZM14.7441 12.3682H15.7441V11.3878H14.7441H13.7441V12.3682H14.7441ZM14.7441 11.3878H15.7441C15.7441 10.4891 15.0164 9.75715 14.1145 9.7569L14.1143 10.7569L14.114 11.7569C13.9083 11.7568 13.7441 11.5902 13.7441 11.3878H14.7441ZM14.1143 10.7569V9.7569H13.9072V10.7569V11.7569H14.1143V10.7569ZM13.9072 10.7569L12.9073 10.7695C12.9121 11.1502 12.8791 11.3059 12.8342 11.4112C12.7915 11.5114 12.694 11.6668 12.3722 11.9408L13.0205 12.7022L13.6688 13.4636C14.1102 13.0878 14.4614 12.694 14.6739 12.1957C14.8842 11.7025 14.913 11.2104 14.9071 10.7443L13.9072 10.7569ZM13.0205 12.7022V11.7022H11.8389V12.7022V13.7022H13.0205V12.7022ZM11.8389 12.7022L12.2029 13.6336C12.6797 13.4473 13.2653 13.1559 13.5776 12.5449C13.8872 11.9391 13.795 11.2796 13.6538 10.7235L12.6846 10.9698L11.7154 11.216C11.7698 11.4301 11.7843 11.5577 11.7848 11.6291C11.7852 11.6913 11.7748 11.6776 11.7966 11.6348C11.819 11.591 11.8402 11.5853 11.8015 11.6125C11.7538 11.646 11.6582 11.6992 11.4748 11.7708L11.8389 12.7022ZM12.6846 10.9698L13.6498 10.7085L13.5922 10.4957L12.627 10.7569L11.6617 11.0181L11.7193 11.231L12.6846 10.9698ZM12.627 10.7569V9.7569H11.582V10.7569V11.7569H12.627V10.7569Z" fill="white" mask="url(#path-3-outside-2_1468_6865)"/>
</g>
<defs>
<clipPath id="clip0_1468_6865">
<rect width="24" height="24" fill="white"/>
</clipPath>
</defs>
</svg>
